# xmcd
#
# Track frame offsets:
#	150
#	22362
#	46890
#	69552
#	92025
#	113920
#	135057
#	159355
#
# Disc length: 2447 seconds
#
# Revision: 1
# Processed by: cddbd v1.4PL0 Copyright (c) Steve Scherf et al.
# Submitted via: audiograbber 1.80
#
DISCID=61098d08
DTITLE=Grupo Niche - A Golpe de Folklore
DYEAR=1900
DGENRE=
TTITLE0=A Golpe de Folklore
TTITLE1=Yo No Tomo Con Hombre
TTITLE2=Un Beso
TTITLE3=Buscaré la Forma
TTITLE4=La Pandereta
TTITLE5=Han Cogido la Cosa
TTITLE6=Atrateño
TTITLE7=Mi Mamá me ha Dicho
EXTD=Muy Buen Disco
EXTT0=
EXTT1=
EXTT2=
EXTT3=
EXTT4=
EXTT5=
EXTT6=
EXTT7=
PLAYORDER=
